<svg width="24" height="18" viewBox="0 0 24 18" fill="none" xmlns="http://www.w3.org/2000/svg">
<path d="M3 0C2.20435 0 1.44129 0.31607 0.87868 0.87868C0.316071 1.44129 0 2.20435 0 3L0 15C0 15.7956 0.316071 16.5587 0.87868 17.1213C1.44129 17.6839 2.20435 18 3 18H21C21.7956 18 22.5587 17.6839 23.1213 17.1213C23.6839 16.5587 24 15.7956 24 15V3C24 2.20435 23.6839 1.44129 23.1213 0.87868C22.5587 0.31607 21.7956 0 21 0H3ZM12.3135 9.48C12.3135 7.56 13.3545 6.414 14.943 6.414C15.9255 6.414 16.677 6.855 16.947 7.5675H17.0265V4.0275H18.7665V13.5H17.0595V12.3795H16.974C16.7565 13.0905 15.939 13.5855 14.9235 13.5855C13.341 13.5855 12.3135 12.4395 12.3135 10.521V9.4785V9.48ZM6.2535 11.187L5.55 13.5H3.75L6.7695 4.5015H8.85L11.8575 13.5H9.966L9.261 11.187H6.255H6.2535Z" fill="#8C8D95"/>
</svg>
