<svg width="8" height="5" viewBox="0 0 8 5" fill="none" xmlns="http://www.w3.org/2000/svg">
<path d="M3.19727 4.7721L0.158015 1.10814C-0.200662 0.677051 0.0908422 2.4576e-07 0.635195 2.4576e-07H6.7137C6.83553 -0.000109918 6.9548 0.0368186 7.05724 0.106364C7.15968 0.175909 7.24094 0.275122 7.29129 0.392123C7.34164 0.509124 7.35895 0.638953 7.34114 0.766061C7.32334 0.89317 7.27117 1.01217 7.19088 1.10881L4.15163 4.77143C4.09215 4.84322 4.01879 4.90076 3.93649 4.94018C3.85419 4.9796 3.76484 5 3.67445 5C3.58406 5 3.49471 4.9796 3.41241 4.94018C3.3301 4.90076 3.25675 4.84389 3.19727 4.7721Z" fill="#606060"/>
</svg>
