<svg width="31" height="30" viewBox="0 0 31 30" fill="none" xmlns="http://www.w3.org/2000/svg">
<path d="M14.8646 18.2748C15.9912 18.2708 18.4542 18.2618 18.4258 16.7168C18.3984 15.1368 16.0328 15.2318 14.8798 15.2788C14.7511 15.2838 14.6365 15.2888 14.5432 15.2898L14.5959 18.2768C14.672 18.2748 14.7632 18.2748 14.8646 18.2748ZM14.745 13.9218C15.685 13.9208 17.7363 13.9188 17.712 12.5137C17.6856 11.0767 15.7154 11.1617 14.7531 11.2037C14.6446 11.2087 14.5503 11.2127 14.4712 11.2137L14.5188 13.9228L14.745 13.9218Z" fill="black"/>
<path fill-rule="evenodd" clip-rule="evenodd" d="M12.544 26.6408C19.0641 28.2438 25.6673 24.3308 27.2927 17.9027C28.9182 11.4736 24.9494 4.96153 18.4293 3.35951C11.9133 1.75549 5.31004 5.66954 3.6856 12.0996C2.06014 18.5277 6.02796 25.0398 12.545 26.6418L12.544 26.6408ZM16.886 9.62059C18.6645 9.74459 20.0801 10.2586 20.2657 11.8626C20.4036 13.0366 19.9168 13.7516 19.1269 14.1656C20.4451 14.4537 21.2817 15.2087 21.1499 16.9367C20.9866 19.0817 19.3774 19.6847 17.0675 19.8547L17.106 22.1048L15.731 22.1298L15.6915 19.9097C15.3355 19.9157 14.9705 19.9197 14.5923 19.9177L14.6328 22.1478L13.2578 22.1718L13.2173 19.9177L12.8289 19.9207C12.6322 19.9217 12.4335 19.9227 12.2347 19.9267L10.444 19.9567L10.6883 18.3327C10.6883 18.3327 11.7064 18.3307 11.6882 18.3157C12.0775 18.3077 12.1759 18.0307 12.1972 17.8567L12.1353 14.2997L12.2337 14.2977H12.2803C12.2319 14.2922 12.1831 14.2898 12.1343 14.2907L12.0897 11.7506C12.0319 11.4766 11.8453 11.1606 11.2886 11.1706C11.3038 11.1506 10.2888 11.1876 10.2888 11.1876L10.2625 9.73959L12.1607 9.70759V9.71459C12.4456 9.70959 12.7387 9.69959 13.0358 9.68859L12.9972 7.45956L14.3722 7.43656L14.4108 9.62059C14.7778 9.60759 15.1469 9.59359 15.5089 9.58759L15.4704 7.41756L16.8464 7.39356L16.886 9.62259V9.62059Z" fill="black"/>
</svg>
