<svg width="73" height="50" viewBox="0 0 73 50" fill="none" xmlns="http://www.w3.org/2000/svg">
<g clip-path="url(#clip0_449_2303)">
<path d="M6.53445 21.8373C5.19591 22.9325 7.38624 32.5456 7.38624 32.5456C7.38624 32.5456 7.87298 47.2086 8.9073 47.8779C9.94162 48.5471 12.2536 47.817 13.1663 47.6954C14.0789 47.5737 13.288 38.5081 11.9494 35.1618C10.6109 31.8155 11.6452 26.9481 11.6452 26.9481L18.8855 28.3474C18.8855 28.3474 14.5048 32.0588 14.6873 32.8498C14.8699 33.6407 19.5547 36.3178 20.4065 36.4395C21.2583 36.5612 22.9011 31.5721 24.3613 28.1649C25.8215 24.7577 14.3831 22.5674 14.3831 22.5674L12.8012 19.5861C12.8012 19.5861 7.87299 20.7421 6.53445 21.8373Z" fill="#2F2E41"/>
<path d="M10.1683 48.1304C10.1683 48.1304 9.72676 49.6756 10.1683 49.6756C10.6098 49.6756 11.4192 50.1172 12.6701 49.97C13.9211 49.8228 13.5532 48.2775 12.6701 48.0568C11.7871 47.836 12.0079 46.07 12.0079 46.07C11.7135 45.4813 10.3154 46.2172 10.3154 46.2172L10.1683 48.1304Z" fill="#2F2E41"/>
<path d="M16.4364 35.8422C16.4364 35.8422 15.679 37.2596 16.1105 37.3527C16.5421 37.4458 17.2402 38.0481 18.4941 38.1681C19.7479 38.288 19.7141 36.6999 18.8975 36.2979C18.0809 35.8959 18.6692 34.2161 18.6692 34.2161C18.5056 33.5786 16.9837 34.0031 16.9837 34.0031L16.4364 35.8422Z" fill="#2F2E41"/>
<path d="M7.35583 8.66488C7.47751 8.90825 6.92993 11.9504 6.92993 11.9504L7.41667 12.8022C7.41667 12.8022 10.2154 11.707 9.78953 11.5245C9.36363 11.342 9.42447 9.09079 9.42447 9.09079C9.42447 9.09079 7.23415 8.42151 7.35583 8.66488Z" fill="#FFB9B9"/>
<path d="M8.40924 9.60261C10.4695 9.60261 12.1397 7.93242 12.1397 5.87213C12.1397 3.81184 10.4695 2.14165 8.40924 2.14165C6.34895 2.14165 4.67876 3.81184 4.67876 5.87213C4.67876 7.93242 6.34895 9.60261 8.40924 9.60261Z" fill="#2F2E41"/>
<path d="M8.15197 3.92344C9.0045 3.92344 9.69562 3.23233 9.69562 2.3798C9.69562 1.52727 9.0045 0.836151 8.15197 0.836151C7.29944 0.836151 6.60832 1.52727 6.60832 2.3798C6.60832 3.23233 7.29944 3.92344 8.15197 3.92344Z" fill="#2F2E41"/>
<path d="M8.82732 3.07895C8.88074 3.0845 8.93441 3.08729 8.98812 3.0873C9.19083 3.0873 9.39156 3.04737 9.57884 2.9698C9.76613 2.89222 9.9363 2.77852 10.0796 2.63518C10.223 2.49183 10.3367 2.32166 10.4143 2.13438C10.4918 1.9471 10.5318 1.74636 10.5318 1.54365C10.5318 1.34093 10.4918 1.1402 10.4143 0.95292C10.3367 0.765636 10.223 0.595466 10.0796 0.452125C9.9363 0.308783 9.76613 0.195079 9.57884 0.117503C9.39156 0.0399276 9.19083 -6.04138e-09 8.98812 0C8.93441 1.38124e-05 8.88074 0.00279939 8.82732 0.00834588C9.20681 0.0481062 9.55812 0.227003 9.81349 0.51052C10.0689 0.794037 10.2102 1.16208 10.2102 1.54365C10.2102 1.92522 10.0689 2.29326 9.81349 2.57678C9.55812 2.8603 9.20681 3.03919 8.82732 3.07895Z" fill="#2F2E41"/>
<path d="M8.51183 10.2468C9.92313 10.2468 11.0672 9.10272 11.0672 7.69142C11.0672 6.28012 9.92313 5.13603 8.51183 5.13603C7.10054 5.13603 5.95645 6.28012 5.95645 7.69142C5.95645 9.10272 7.10054 10.2468 8.51183 10.2468Z" fill="#FFB9B9"/>
<path d="M4.83086 11.6158C4.0399 11.7983 2.70137 13.7452 2.70137 13.7452L4.83086 15.8747C4.83086 15.8747 6.35192 21.5939 6.53445 21.8373C7.73025 23.4317 13.1054 19.8903 13.1054 19.8903C13.1054 19.8903 12.8925 18.1563 13.0142 17.3045C13.1312 16.4853 12.5579 14.8404 12.5579 14.8404C12.5579 14.8404 14.5657 13.9886 14.1398 13.1368C13.7139 12.285 11.0976 10.3381 10.0025 11.0073C8.90731 11.6766 6.71698 11.0073 6.71698 11.0073C6.71698 11.0073 5.62181 11.4332 4.83086 11.6158Z" fill="#E6E6E6"/>
<path d="M20.3761 23.8755C20.3761 23.8755 23.8441 26.8568 24.6959 26.2484C25.5477 25.64 21.4104 23.5105 21.4104 23.5105L20.3761 23.8755Z" fill="#FFB9B9"/>
<path d="M4.80044 22.8412C5.28718 23.3888 7.59919 21.9894 7.30278 21.3679C7.00637 20.7465 5.16549 21.9894 5.16549 21.9894C5.16549 21.9894 4.3137 22.2936 4.80044 22.8412Z" fill="#FFB9B9"/>
<path d="M4.83086 14.597L2.27548 19.3428C2.27548 19.3428 5.19591 21.7765 5.56097 21.8373C5.92602 21.8981 4.83086 23.48 4.83086 23.48C4.83086 23.48 1.54536 21.168 0.267672 20.012C-1.01002 18.856 2.70137 13.7452 2.70137 13.7452L3.79654 13.076L4.83086 14.597Z" fill="#E6E6E6"/>
<path d="M12.2536 14.4145L15.2349 19.0385C15.2349 19.0385 19.7981 24.1493 20.4065 24.3927C21.015 24.636 21.7451 23.48 21.7451 23.48L16.2693 16.8482L14.2006 13.1368L13.4097 12.8326L12.2536 14.4145Z" fill="#E6E6E6"/>
<path d="M8.40923 6.19893C9.83012 6.19893 10.982 5.50782 10.982 4.65528C10.982 3.80275 9.83012 3.11163 8.40923 3.11163C6.98834 3.11163 5.83649 3.80275 5.83649 4.65528C5.83649 5.50782 6.98834 6.19893 8.40923 6.19893Z" fill="#2F2E41"/>
<path d="M15.6267 37.9612C15.5423 37.9613 15.4615 37.9949 15.4019 38.0545C15.3422 38.1141 15.3087 38.195 15.3086 38.2793V49.1268C15.3087 49.2111 15.3422 49.2919 15.4019 49.3516C15.4615 49.4112 15.5423 49.4447 15.6267 49.4448H52.6147C52.699 49.4447 52.7798 49.4112 52.8395 49.3515C52.8991 49.2919 52.9326 49.2111 52.9327 49.1268V38.2793C52.9326 38.195 52.8991 38.1141 52.8395 38.0545C52.7798 37.9949 52.699 37.9613 52.6147 37.9612L15.6267 37.9612Z" fill="#E6E6E6"/>
<path d="M16.1056 48.6478H52.1357V38.7582H16.1056V48.6478Z" fill="white"/>
<path d="M47.5878 46.5962C47.5186 46.5961 47.45 46.6096 47.386 46.6361C47.322 46.6625 47.2639 46.7013 47.2149 46.7502C47.1659 46.7992 47.1271 46.8573 47.1005 46.9212C47.074 46.9852 47.0604 47.0538 47.0604 47.123C47.0604 47.1922 47.074 47.2608 47.1005 47.3247C47.1271 47.3887 47.1659 47.4468 47.2149 47.4957C47.2639 47.5447 47.322 47.5835 47.386 47.6099C47.45 47.6363 47.5186 47.6499 47.5878 47.6498H49.6951C49.8349 47.6498 49.9689 47.5943 50.0677 47.4955C50.1665 47.3967 50.222 47.2627 50.222 47.123C50.222 46.9833 50.1665 46.8493 50.0677 46.7505C49.9689 46.6517 49.8349 46.5962 49.6951 46.5962H47.5878Z" fill="#09786E"/>
<path d="M50.222 45.5743H25.8956V45.7129H50.222V45.5743Z" fill="#E6E6E6"/>
<path d="M20.8106 46.7715C22.5053 46.7715 23.8791 45.3977 23.8791 43.703C23.8791 42.0083 22.5053 40.6345 20.8106 40.6345C19.1159 40.6345 17.7421 42.0083 17.7421 43.703C17.7421 45.3977 19.1159 46.7715 20.8106 46.7715Z" fill="#09786E"/>
<path d="M25.934 44.8003L25.8572 44.685L28.385 42.9997L30.1185 43.8317L32.6118 42.2388L37.5716 44.3545L41.5214 42.4143L45.3567 43.9692L50.176 39.7007L50.2679 39.8045L45.3843 44.13L41.5268 42.566L37.5756 44.5069L32.6247 42.395L30.1281 43.9902L28.3962 43.1589L25.934 44.8003Z" fill="#3F3D56"/>
<path d="M26.3461 46.6686C26.2869 46.6686 26.2283 46.6802 26.1735 46.7028C26.1188 46.7254 26.0691 46.7585 26.0272 46.8004C25.9853 46.8422 25.9521 46.8919 25.9294 46.9466C25.9067 47.0013 25.895 47.0599 25.895 47.1191C25.895 47.1783 25.9067 47.237 25.9294 47.2917C25.9521 47.3464 25.9853 47.396 26.0272 47.4379C26.0691 47.4797 26.1188 47.5129 26.1735 47.5355C26.2283 47.5581 26.2869 47.5697 26.3461 47.5696H31.0589C31.1783 47.5695 31.2927 47.5219 31.3771 47.4375C31.4614 47.353 31.5088 47.2385 31.5088 47.1191C31.5088 46.9998 31.4614 46.8853 31.3771 46.8008C31.2927 46.7163 31.1783 46.6688 31.0589 46.6686H26.3461Z" fill="#E6E6E6"/>
<path d="M21.9826 42.3303H22.462L21.4644 43.3176C21.2901 43.4894 21.0552 43.5857 20.8105 43.5857C20.5658 43.5857 20.3309 43.4894 20.1566 43.3176L19.1591 42.3303H19.6386L20.3964 43.0803C20.5068 43.1891 20.6556 43.2501 20.8106 43.2501C20.9656 43.2501 21.1143 43.1891 21.2247 43.0803L21.9826 42.3303ZM19.6325 45.0758H19.153L20.1568 44.0823C20.331 43.9106 20.5659 43.8143 20.8106 43.8143C21.0553 43.8143 21.2902 43.9106 21.4645 44.0823L22.4683 45.0758H21.9888L21.2247 44.3196C21.1143 44.2108 20.9656 44.1498 20.8106 44.1498C20.6556 44.1498 20.5068 44.2108 20.3964 44.3196L19.6325 45.0758Z" fill="white"/>
<path d="M20.4431 3.21575C20.3588 3.21584 20.278 3.24939 20.2184 3.30901C20.1587 3.36863 20.1252 3.44947 20.1251 3.53379V14.3813C20.1252 14.4656 20.1587 14.5464 20.2184 14.6061C20.278 14.6657 20.3588 14.6992 20.4431 14.6993H57.4312C57.5155 14.6992 57.5963 14.6657 57.6559 14.6061C57.7156 14.5464 57.7491 14.4656 57.7492 14.3813V3.53379C57.7491 3.44947 57.7156 3.36863 57.6559 3.30901C57.5963 3.24938 57.5155 3.21584 57.4312 3.21574L20.4431 3.21575Z" fill="#E6E6E6"/>
<path d="M20.9221 13.9023H56.9522V4.01276H20.9221V13.9023Z" fill="white"/>
<path d="M52.4043 11.8507C52.2646 11.8507 52.1306 11.9062 52.0318 12.005C51.933 12.1038 51.8775 12.2378 51.8775 12.3775C51.8775 12.5172 51.933 12.6512 52.0318 12.75C52.1306 12.8488 52.2646 12.9043 52.4043 12.9043H54.5116C54.6513 12.9043 54.7853 12.8488 54.8841 12.75C54.9829 12.6512 55.0384 12.5172 55.0384 12.3775C55.0384 12.2378 54.9829 12.1038 54.8841 12.005C54.7853 11.9062 54.6513 11.8507 54.5116 11.8507H52.4043Z" fill="#09786E"/>
<path d="M55.0384 10.8288H30.7121V10.9674H55.0384V10.8288Z" fill="#E6E6E6"/>
<path d="M25.6271 12.026C27.3218 12.026 28.6956 10.6522 28.6956 8.95752C28.6956 7.26284 27.3218 5.88902 25.6271 5.88902C23.9324 5.88902 22.5586 7.26284 22.5586 8.95752C22.5586 10.6522 23.9324 12.026 25.6271 12.026Z" fill="#09786E"/>
<path d="M30.7505 10.0547L30.6736 9.93941L33.2015 8.25419L34.9349 9.08626L37.4283 7.49331L37.4619 7.50763L42.3881 9.60904L46.3378 7.66881L50.1732 9.22371L54.9925 4.95517L55.0844 5.05894L50.2008 9.38444L46.3432 7.82057L42.3922 9.76147L37.4412 7.64952L34.9446 9.24463L33.2127 8.41329L30.7505 10.0547Z" fill="#3F3D56"/>
<path d="M31.1626 11.9231C31.0432 11.9233 30.9287 11.9708 30.8444 12.0553C30.76 12.1398 30.7126 12.2543 30.7126 12.3736C30.7126 12.493 30.76 12.6075 30.8444 12.692C30.9287 12.7764 31.0432 12.824 31.1626 12.8241H35.8754C35.9948 12.8241 36.1094 12.7767 36.1939 12.6922C36.2784 12.6077 36.3258 12.4931 36.3258 12.3736C36.3258 12.2542 36.2784 12.1396 36.1939 12.0551C36.1094 11.9706 35.9948 11.9231 35.8754 11.9231H31.1626Z" fill="#E6E6E6"/>
<path d="M26.8617 8.59938C26.9191 8.21539 26.6267 8.00897 26.2269 7.87126L26.3566 7.3511L26.0399 7.27219L25.9137 7.77865C25.8305 7.75791 25.745 7.73834 25.6601 7.71895L25.7872 7.20916L25.4708 7.13025L25.341 7.65023C25.2721 7.63454 25.2045 7.61903 25.1388 7.6027L25.1392 7.60108L24.7025 7.49205L24.6183 7.83023C24.6183 7.83023 24.8532 7.88407 24.8483 7.8874C24.8921 7.89265 24.9321 7.91488 24.9597 7.94932C24.9873 7.98376 25.0002 8.02765 24.9958 8.07155L24.8481 8.66413C24.8593 8.66692 24.8703 8.67044 24.881 8.67468L24.8476 8.66638L24.6405 9.49649C24.6359 9.51098 24.6286 9.52443 24.6188 9.53606C24.609 9.54769 24.5971 9.55728 24.5836 9.56427C24.5701 9.57126 24.5554 9.57551 24.5402 9.57679C24.5251 9.57806 24.5099 9.57634 24.4954 9.5717C24.4985 9.5763 24.2652 9.51426 24.2652 9.51426L24.1081 9.87678L24.5202 9.9795C24.5968 9.99871 24.672 10.0188 24.7458 10.0378L24.6148 10.564L24.931 10.6429L25.0609 10.1223C25.1472 10.1458 25.2311 10.1674 25.3131 10.1878L25.1838 10.7059L25.5005 10.7848L25.6315 10.2597C26.1714 10.3619 26.5775 10.3207 26.7482 9.83242C26.8859 9.43923 26.7414 9.21242 26.4574 9.06444C26.6642 9.01655 26.8201 8.88047 26.8616 8.59938L26.8617 8.59938ZM26.1382 9.61382C26.0403 10.007 25.3783 9.79454 25.1636 9.74115L25.3375 9.04415C25.5521 9.09772 26.2403 9.20377 26.1383 9.61382H26.1382ZM26.236 8.5937C26.1468 8.95135 25.5958 8.76964 25.4169 8.72509L25.5746 8.09293C25.7534 8.13747 26.3291 8.22062 26.236 8.5937Z" fill="white"/>
<path d="M34.995 20.5885C34.9107 20.5886 34.8298 20.6221 34.7702 20.6817C34.7106 20.7414 34.677 20.8222 34.6769 20.9065V31.754C34.677 31.8383 34.7106 31.9192 34.7702 31.9788C34.8298 32.0384 34.9107 32.072 34.995 32.0721H71.983C72.0673 32.072 72.1482 32.0384 72.2078 31.9788C72.2674 31.9192 72.301 31.8383 72.3011 31.754V20.9065C72.301 20.8222 72.2674 20.7414 72.2078 20.6817C72.1482 20.6221 72.0673 20.5886 71.983 20.5885L34.995 20.5885Z" fill="#E6E6E6"/>
<path d="M35.4739 31.2751H71.504V21.3855H35.4739V31.2751Z" fill="white"/>
<path d="M66.9562 29.2234C66.8164 29.2234 66.6824 29.2789 66.5836 29.3777C66.4848 29.4765 66.4293 29.6105 66.4293 29.7503C66.4293 29.89 66.4848 30.024 66.5836 30.1228C66.6824 30.2216 66.8164 30.2771 66.9562 30.2771H69.0635C69.2032 30.2771 69.3372 30.2216 69.436 30.1228C69.5348 30.024 69.5903 29.89 69.5903 29.7503C69.5903 29.6105 69.5348 29.4765 69.436 29.3777C69.3372 29.2789 69.2032 29.2234 69.0635 29.2234H66.9562Z" fill="#09786E"/>
<path d="M69.5903 28.2015H45.2639V28.3401H69.5903V28.2015Z" fill="#E6E6E6"/>
<path d="M40.179 29.3988C41.8736 29.3988 43.2475 28.025 43.2475 26.3303C43.2475 24.6356 41.8736 23.2618 40.179 23.2618C38.4843 23.2618 37.1105 24.6356 37.1105 26.3303C37.1105 28.025 38.4843 29.3988 40.179 29.3988Z" fill="#09786E"/>
<path d="M45.3024 27.4275L45.2255 27.3122L47.7533 25.627L49.4868 26.459L51.9801 24.8661L52.0138 24.8804L56.9399 26.9818L60.8897 25.0416L64.7251 26.5964L69.5444 22.3279L69.6363 22.4318L64.7527 26.7572L60.8951 25.1933L56.944 27.1342L51.9931 25.0223L49.4964 26.6174L47.7646 25.7861L45.3024 27.4275Z" fill="#3F3D56"/>
<path d="M45.7144 29.2959C45.5949 29.2959 45.4804 29.3434 45.3959 29.4278C45.3114 29.5123 45.2639 29.6269 45.2639 29.7464C45.2639 29.8659 45.3114 29.9804 45.3959 30.0649C45.4804 30.1494 45.5949 30.1969 45.7144 30.1969H50.4272C50.5467 30.1969 50.6613 30.1494 50.7458 30.0649C50.8302 29.9804 50.8777 29.8659 50.8777 29.7464C50.8777 29.6269 50.8302 29.5123 50.7458 29.4278C50.6613 29.3434 50.5467 29.2959 50.4272 29.2959H45.7144Z" fill="#E6E6E6"/>
<path d="M40.1786 28.3526L41.4208 26.6032L40.1786 27.3367L38.9372 26.6032L40.1785 28.3526H40.1786Z" fill="white"/>
<path d="M40.1785 27.1016H40.1786L41.4201 26.3678L40.1786 24.3079H40.1785L38.9372 26.3678L40.1785 27.1016Z" fill="white"/>
</g>
<defs>
<clipPath id="clip0_449_2303">
<rect width="72.3011" height="50" fill="white"/>
</clipPath>
</defs>
</svg>
