<svg width="25" height="31" viewBox="0 0 25 31" fill="none" xmlns="http://www.w3.org/2000/svg">
<path d="M11.0416 8.20832H19.7916M0.833252 18.4167H4.32596C4.75471 18.4167 5.17763 18.5129 5.56117 18.6996L8.53909 20.1404C8.92263 20.3256 9.34554 20.4219 9.77575 20.4219H11.2953C12.7653 20.4219 13.9583 21.5754 13.9583 22.9987C13.9583 23.0571 13.9189 23.1067 13.862 23.1227L10.1564 24.1479C9.49145 24.3316 8.78243 24.2673 8.16138 23.9671L4.97784 22.4271M11.0416 5.29166V11.125C11.0416 11.6995 11.1547 12.2684 11.3746 12.7992C11.5945 13.33 11.9167 13.8123 12.323 14.2186C12.7292 14.6248 13.2115 14.9471 13.7423 15.167C14.2731 15.3868 14.8421 15.5 15.4166 15.5C15.9911 15.5 16.56 15.3868 17.0908 15.167C17.6216 14.9471 18.1039 14.6248 18.5102 14.2186C18.9164 13.8123 19.2387 13.33 19.4586 12.7992C19.6784 12.2684 19.7916 11.6995 19.7916 11.125V5.29166C19.7916 4.71712 19.6784 4.14822 19.4586 3.61742C19.2387 3.08662 18.9164 2.60432 18.5102 2.19806C18.1039 1.79181 17.6216 1.46955 17.0908 1.24968C16.56 1.02982 15.9911 0.916656 15.4166 0.916656C14.8421 0.916656 14.2731 1.02982 13.7423 1.24968C13.2115 1.46955 12.7292 1.79181 12.323 2.19806C11.9167 2.60432 11.5945 3.08662 11.3746 3.61742C11.1547 4.14822 11.0416 4.71712 11.0416 5.29166Z" stroke="#5C5C5C" stroke-width="1.5" stroke-linecap="round" stroke-linejoin="round"/>
<path d="M13.9583 22.0625L20.6564 20.0048C21.2395 19.8259 21.8642 19.8357 22.4414 20.0329C23.0186 20.2301 23.5188 20.6046 23.8705 21.1029C24.4087 21.8467 24.1899 22.9142 23.4053 23.3662L12.446 29.691C12.1033 29.8893 11.7238 30.0157 11.3307 30.0626C10.9376 30.1095 10.539 30.0759 10.1593 29.9638L0.833252 27.1958" stroke="#5C5C5C" stroke-width="1.5" stroke-linecap="round" stroke-linejoin="round"/>
</svg>
