<svg width="10" height="10" viewBox="0 0 10 10" fill="none" xmlns="http://www.w3.org/2000/svg">
<g clip-path="url(#clip0_32_3590)">
<path d="M8.75 3.125V8.75H3.125V3.125H8.75ZM8.75 2.5H3.125C2.95924 2.5 2.80027 2.56585 2.68306 2.68306C2.56585 2.80027 2.5 2.95924 2.5 3.125V8.75C2.5 8.91576 2.56585 9.07473 2.68306 9.19194C2.80027 9.30915 2.95924 9.375 3.125 9.375H8.75C8.91576 9.375 9.07473 9.30915 9.19194 9.19194C9.30915 9.07473 9.375 8.91576 9.375 8.75V3.125C9.375 2.95924 9.30915 2.80027 9.19194 2.68306C9.07473 2.56585 8.91576 2.5 8.75 2.5Z" fill="#898989"/>
<path d="M1.25 5.625H0.625V1.25C0.625 1.08424 0.690848 0.925268 0.808058 0.808058C0.925268 0.690848 1.08424 0.625 1.25 0.625H5.625V1.25H1.25V5.625Z" fill="#898989"/>
</g>
<defs>
<clipPath id="clip0_32_3590">
<rect width="10" height="10" fill="white"/>
</clipPath>
</defs>
</svg>
