<svg width="20" height="12" viewBox="0 0 20 12" fill="none" xmlns="http://www.w3.org/2000/svg">
<path d="M0.899975 9.125L9.29998 0.699999C9.39998 0.599999 9.50831 0.529333 9.62498 0.487999C9.74164 0.445999 9.86664 0.424999 9.99998 0.424999C10.1333 0.424999 10.2583 0.445999 10.375 0.487999C10.4916 0.529333 10.6 0.599999 10.7 0.699999L19.125 9.125C19.3583 9.35833 19.475 9.65 19.475 10C19.475 10.35 19.35 10.65 19.1 10.9C18.85 11.15 18.5583 11.275 18.225 11.275C17.8916 11.275 17.6 11.15 17.35 10.9L9.99998 3.55L2.64997 10.9C2.41664 11.1333 2.12931 11.25 1.78798 11.25C1.44598 11.25 1.14997 11.125 0.899975 10.875C0.649975 10.625 0.524975 10.3333 0.524975 10C0.524975 9.66667 0.649975 9.375 0.899975 9.125Z" fill="#F8F8F8"/>
</svg>
