<svg width="24" height="24" viewBox="0 0 24 24" fill="none" xmlns="http://www.w3.org/2000/svg">
<path d="M19 14.0001V16.0001H16V14.2801L19 14.0001ZM19 13.0001C19 11.9001 18 11.0001 16.8 11.0001H10V10.0001H5V21.0001H10V13.9101L19 13.0001ZM5 9.00006H10V7.00006L15.36 5.21006C15.4798 5.17345 15.5911 5.11305 15.687 5.03247C15.783 4.9519 15.8617 4.8528 15.9185 4.7411C15.9753 4.6294 16.009 4.50739 16.0175 4.38238C16.0261 4.25736 16.0094 4.13191 15.9683 4.01351C15.9273 3.89511 15.8628 3.7862 15.7787 3.6933C15.6946 3.6004 15.5927 3.5254 15.4789 3.4728C15.3652 3.4202 15.242 3.39108 15.1168 3.38717C14.9915 3.38326 14.8668 3.40465 14.75 3.45006L5 7.00006V9.00006Z" fill="#5C5C5C"/>
</svg>
