<svg width="21" height="21" viewBox="0 0 21 21" fill="none" xmlns="http://www.w3.org/2000/svg">
<path d="M10.4478 16.75C10.8124 16.75 11.1208 16.6239 11.3728 16.3719C11.6249 16.1198 11.7506 15.8118 11.7499 15.4479C11.7492 15.084 11.6235 14.7757 11.3728 14.5229C11.1221 14.2701 10.8138 14.1444 10.4478 14.1458C10.0819 14.1472 9.77388 14.2732 9.52388 14.5239C9.27388 14.7746 9.14784 15.0826 9.14575 15.4479C9.14367 15.8132 9.26971 16.1215 9.52388 16.3729C9.77804 16.6243 10.086 16.75 10.4478 16.75ZM9.51034 12.7396H11.4374C11.4374 12.1667 11.5027 11.7153 11.6333 11.3854C11.7638 11.0555 12.1326 10.6042 12.7395 10.0312C13.1909 9.57985 13.5468 9.14998 13.8072 8.74165C14.0676 8.33332 14.1978 7.84304 14.1978 7.27082C14.1978 6.2986 13.8419 5.55207 13.1301 5.03123C12.4183 4.5104 11.5763 4.24998 10.6041 4.24998C9.6145 4.24998 8.81173 4.5104 8.19575 5.03123C7.57978 5.55207 7.14992 6.17707 6.90617 6.90624L8.62492 7.58332C8.71172 7.27082 8.90721 6.93228 9.21138 6.56769C9.51554 6.20311 9.97978 6.02082 10.6041 6.02082C11.1596 6.02082 11.5763 6.1729 11.8541 6.47707C12.1319 6.78123 12.2708 7.11526 12.2708 7.47915C12.2708 7.82637 12.1666 8.15207 11.9583 8.45623C11.7499 8.7604 11.4895 9.04235 11.177 9.30207C10.4131 9.97915 9.94436 10.4913 9.77075 10.8385C9.59714 11.1857 9.51034 11.8194 9.51034 12.7396ZM10.4999 20.9167C9.05895 20.9167 7.70478 20.6434 6.43742 20.0969C5.17006 19.5503 4.06763 18.808 3.13013 17.8698C2.19263 16.9316 1.45061 15.8292 0.904087 14.5625C0.357559 13.2958 0.0839477 11.9417 0.0832533 10.5C0.0825588 9.05832 0.35617 7.70415 0.904087 6.43749C1.452 5.17082 2.19402 4.06839 3.13013 3.13019C4.06624 2.192 5.16867 1.44999 6.43742 0.904152C7.70617 0.358318 9.06034 0.0847071 10.4999 0.0833182C11.9395 0.0819294 13.2937 0.355541 14.5624 0.904152C15.8312 1.45276 16.9336 2.19478 17.8697 3.13019C18.8058 4.06561 19.5482 5.16804 20.0968 6.43749C20.6454 7.70693 20.9187 9.0611 20.9166 10.5C20.9145 11.9389 20.6409 13.293 20.0958 14.5625C19.5506 15.8319 18.8086 16.9344 17.8697 17.8698C16.9308 18.8052 15.8284 19.5476 14.5624 20.0969C13.2964 20.6462 11.9423 20.9194 10.4999 20.9167Z" fill="#5C5C5C"/>
</svg>
