<svg width="25" height="25" viewBox="0 0 25 25" fill="none" xmlns="http://www.w3.org/2000/svg">
<path d="M3.75 9.98155C3.74932 8.42325 4.23404 6.90343 5.13682 5.63327C6.03959 4.36311 7.31559 3.40569 8.7875 2.89405C8.7305 2.53694 8.75165 2.17171 8.8495 1.82356C8.94735 1.47542 9.11956 1.15265 9.35426 0.87752C9.58896 0.602392 9.88055 0.381456 10.2089 0.229956C10.5373 0.0784564 10.8946 0 11.2563 0C11.6179 0 11.9752 0.0784564 12.3036 0.229956C12.6319 0.381456 12.9235 0.602392 13.1582 0.87752C13.3929 1.15265 13.5651 1.47542 13.663 1.82356C13.7608 2.17171 13.782 2.53694 13.725 2.89405C15.1946 3.40779 16.4679 4.3661 17.3683 5.63608C18.2687 6.90606 18.7516 8.42476 18.75 9.98155V17.4815L22.5 19.9815V21.2315H0V19.9815L3.75 17.4815V9.98155ZM13.75 22.4815C13.75 23.1446 13.4866 23.7805 13.0178 24.2493C12.5489 24.7182 11.913 24.9815 11.25 24.9815C10.587 24.9815 9.95107 24.7182 9.48223 24.2493C9.01339 23.7805 8.75 23.1446 8.75 22.4815H13.75Z" fill="#5F5F5F"/>
</svg>
