<svg width="40" height="50" viewBox="0 0 40 50" fill="none" xmlns="http://www.w3.org/2000/svg">
<g clip-path="url(#clip0_449_2145)">
<path d="M8.10719 47.312C8.03774 47.3152 7.96898 47.297 7.91024 47.2598C7.8515 47.2226 7.80561 47.1682 7.77879 47.1041C7.75197 47.0399 7.74551 46.9691 7.7603 46.9012C7.77508 46.8332 7.81039 46.7715 7.86144 46.7243C7.86999 46.6903 7.87613 46.6659 7.88468 46.6319C7.88162 46.6245 7.87854 46.6171 7.87545 46.6098C7.80548 46.4445 7.68824 46.3036 7.53845 46.2047C7.38866 46.1059 7.21301 46.0535 7.03354 46.0542C6.85408 46.0549 6.67882 46.1085 6.52977 46.2085C6.38072 46.3084 6.26453 46.4502 6.1958 46.616C5.92108 47.2776 5.57132 47.9404 5.4852 48.64C5.44727 48.9492 5.46327 49.2627 5.53249 49.5664C4.88726 48.1589 4.55221 46.6292 4.55005 45.0808C4.54991 44.6923 4.5715 44.3041 4.61471 43.9179C4.65042 43.6014 4.69996 43.2871 4.76334 42.9751C5.10917 41.282 5.85167 39.6951 6.92989 38.3447C7.45174 38.06 7.87377 37.6221 8.13911 37.0901C8.23524 36.8989 8.30317 36.6948 8.34081 36.4841C8.28195 36.4918 8.22211 36.4966 8.16324 36.5005C8.1449 36.5014 8.12561 36.5024 8.10727 36.5034L8.10035 36.5037C8.03565 36.5066 7.97149 36.4907 7.9156 36.458C7.85971 36.4253 7.81446 36.3771 7.7853 36.3193C7.75615 36.2615 7.74434 36.1964 7.75128 36.132C7.75822 36.0676 7.78363 36.0066 7.82444 35.9564C7.84986 35.9251 7.87529 35.8938 7.90074 35.8626C7.93935 35.8143 7.97891 35.767 8.01751 35.7188C8.02197 35.7142 8.02616 35.7093 8.03006 35.7043C8.07446 35.6493 8.11884 35.5952 8.16324 35.5402C8.08221 35.4145 7.97322 35.3091 7.84477 35.2324C7.39988 34.9718 6.7861 35.1523 6.46473 35.5547C6.1424 35.9571 6.0816 36.5217 6.19354 37.0245C6.30363 37.4523 6.48574 37.8583 6.73206 38.225C6.70792 38.2559 6.68283 38.2858 6.65871 38.3167C6.21767 38.8838 5.83327 39.4928 5.51103 40.1349C5.5894 39.4156 5.49587 38.6879 5.23814 38.0118C4.97693 37.3816 4.48733 36.8509 4.05618 36.3062C3.5383 35.6518 2.47634 35.9374 2.38511 36.7669C2.38422 36.7749 2.38336 36.7829 2.38252 36.7909C2.44656 36.8271 2.50925 36.8654 2.57058 36.906C2.64763 36.9575 2.70734 37.031 2.74187 37.117C2.77641 37.203 2.78416 37.2974 2.76411 37.3879C2.74407 37.4784 2.69716 37.5607 2.62954 37.624C2.56192 37.6874 2.47673 37.7289 2.38515 37.743L2.37577 37.7444C2.39858 37.9752 2.43891 38.204 2.4964 38.4287C2.66299 39.0559 2.95736 39.642 3.36107 40.1502C3.76478 40.6583 4.26911 41.0776 4.84246 41.3817C4.8801 41.401 4.91678 41.4203 4.95441 41.4387C4.63066 42.3562 4.42758 43.3119 4.35028 44.2818C4.30652 44.854 4.30911 45.4288 4.358 46.0005L4.35511 45.9803C4.23157 45.3445 3.8924 44.7708 3.39487 44.3561C2.65591 43.749 1.61191 43.5255 0.814703 43.0376C0.729979 42.9832 0.631465 42.9541 0.530782 42.9539C0.430099 42.9537 0.331448 42.9822 0.24646 43.0362C0.161472 43.0902 0.0936929 43.1673 0.051119 43.2586C0.00854521 43.3498 -0.0070487 43.4513 0.00617641 43.5511C0.0072456 43.5582 0.00833413 43.5653 0.00943835 43.5724C0.128277 43.6208 0.243986 43.6766 0.355891 43.7394C0.419931 43.7755 0.482618 43.8139 0.543953 43.8544C0.621006 43.9059 0.680709 43.9795 0.715243 44.0654C0.749778 44.1514 0.757531 44.2459 0.737487 44.3363C0.717443 44.4268 0.670537 44.5091 0.602914 44.5725C0.535291 44.6358 0.450104 44.6773 0.358518 44.6914L0.349133 44.6929C0.342376 44.6938 0.336587 44.6948 0.329842 44.6958C0.532895 45.1806 0.817888 45.6269 1.17234 46.015C1.6102 46.4848 2.13941 46.8603 2.72754 47.1184C3.31566 47.3764 3.95029 47.5116 4.59252 47.5157H4.59348C4.76782 48.2733 5.02042 49.0107 5.3472 49.716H8.03971C8.04937 49.6861 8.05805 49.6552 8.06674 49.6253C7.81751 49.641 7.56731 49.6261 7.32171 49.5809C7.52148 49.3358 7.72124 49.0887 7.92101 48.8436C7.92547 48.839 7.92966 48.8342 7.93356 48.8291C8.03489 48.7037 8.13719 48.5792 8.23852 48.4537L8.23857 48.4536C8.24397 48.069 8.19984 47.6853 8.10727 47.312L8.10719 47.312Z" fill="#F2F2F2"/>
<path d="M31.6707 47.312C31.7401 47.3152 31.8089 47.297 31.8676 47.2598C31.9264 47.2226 31.9723 47.1682 31.9991 47.1041C32.0259 47.0399 32.0324 46.9691 32.0176 46.9012C32.0028 46.8332 31.9675 46.7715 31.9164 46.7243C31.9079 46.6903 31.9018 46.6659 31.8932 46.6319C31.8963 46.6245 31.8993 46.6171 31.9024 46.6098C31.9724 46.4445 32.0896 46.3036 32.2394 46.2047C32.3892 46.1059 32.5649 46.0535 32.7443 46.0542C32.9238 46.0549 33.0991 46.1085 33.2481 46.2085C33.3972 46.3084 33.5133 46.4502 33.5821 46.616C33.8568 47.2776 34.2066 47.9404 34.2927 48.64C34.3306 48.9492 34.3146 49.2627 34.2454 49.5664C34.8906 48.1589 35.2257 46.6292 35.2278 45.0808C35.228 44.6923 35.2064 44.3041 35.1632 43.9179C35.1275 43.6014 35.0779 43.2871 35.0145 42.9751C34.6687 41.282 33.9262 39.6951 32.848 38.3447C32.3261 38.06 31.9041 37.6221 31.6388 37.0901C31.5426 36.8989 31.4747 36.6948 31.4371 36.4841C31.4959 36.4918 31.5558 36.4966 31.6146 36.5005C31.633 36.5014 31.6523 36.5024 31.6706 36.5034L31.6775 36.5037C31.7422 36.5066 31.8064 36.4907 31.8623 36.458C31.9182 36.4253 31.9634 36.3771 31.9926 36.3193C32.0217 36.2615 32.0335 36.1964 32.0266 36.132C32.0197 36.0676 31.9943 36.0066 31.9534 35.9564C31.928 35.9251 31.9026 35.8938 31.8771 35.8626C31.8385 35.8143 31.799 35.767 31.7604 35.7188C31.7559 35.7142 31.7517 35.7093 31.7478 35.7043C31.7034 35.6493 31.659 35.5952 31.6146 35.5402C31.6957 35.4145 31.8047 35.3091 31.9331 35.2324C32.378 34.9718 32.9918 35.1523 33.3132 35.5547C33.6355 35.9571 33.6963 36.5217 33.5843 37.0245C33.4743 37.4523 33.2922 37.8583 33.0458 38.225C33.07 38.2559 33.0951 38.2858 33.1192 38.3167C33.5602 38.8838 33.9446 39.4928 34.2669 40.1349C34.1885 39.4156 34.282 38.6879 34.5397 38.0118C34.801 37.3816 35.2906 36.8509 35.7217 36.3062C36.2396 35.6518 37.3015 35.9374 37.3928 36.7669C37.3937 36.7749 37.3945 36.7829 37.3954 36.7909C37.3313 36.8271 37.2686 36.8654 37.2073 36.906C37.1303 36.9575 37.0705 37.031 37.036 37.117C37.0015 37.203 36.9937 37.2974 37.0138 37.3879C37.0338 37.4784 37.0807 37.5607 37.1483 37.624C37.216 37.6874 37.3012 37.7289 37.3927 37.743L37.4021 37.7444C37.3793 37.9752 37.339 38.204 37.2815 38.4287C37.1149 39.0559 36.8205 39.642 36.4168 40.1502C36.0131 40.6583 35.5088 41.0776 34.9354 41.3817C34.8978 41.401 34.8611 41.4203 34.8235 41.4387C35.1472 42.3562 35.3503 43.3119 35.4276 44.2818C35.4714 44.854 35.4688 45.4288 35.4199 46.0005L35.4228 45.9803C35.5463 45.3445 35.8855 44.7708 36.383 44.3561C37.122 43.749 38.166 43.5255 38.9632 43.0376C39.0479 42.9832 39.1464 42.9541 39.2471 42.9539C39.3478 42.9537 39.4464 42.9822 39.5314 43.0362C39.6164 43.0902 39.6842 43.1673 39.7268 43.2586C39.7693 43.3498 39.7849 43.4513 39.7717 43.5511C39.7706 43.5582 39.7696 43.5653 39.7684 43.5724C39.6496 43.6208 39.5339 43.6766 39.422 43.7394C39.358 43.7755 39.2953 43.8139 39.2339 43.8544C39.1569 43.9059 39.0972 43.9795 39.0626 44.0654C39.0281 44.1514 39.0204 44.2459 39.0404 44.3363C39.0604 44.4268 39.1074 44.5091 39.175 44.5725C39.2426 44.6358 39.3278 44.6773 39.4194 44.6914L39.4288 44.6929C39.4355 44.6938 39.4413 44.6948 39.448 44.6958C39.245 45.1806 38.96 45.6269 38.6055 46.015C38.1677 46.4848 37.6385 46.8603 37.0504 47.1184C36.4622 47.3764 35.8276 47.5116 35.1854 47.5157H35.1844C35.0101 48.2733 34.7575 49.0107 34.4307 49.716H31.7382C31.7285 49.6861 31.7198 49.6552 31.7111 49.6253C31.9604 49.641 32.2106 49.6261 32.4562 49.5809C32.2564 49.3358 32.0566 49.0887 31.8569 48.8436C31.8524 48.839 31.8482 48.8342 31.8443 48.8291C31.743 48.7037 31.6407 48.5792 31.5394 48.4537L31.5393 48.4536C31.5339 48.069 31.5781 47.6853 31.6707 47.312Z" fill="#F2F2F2"/>
<path d="M8.96437 48.2844L9.75153 48.6198L11.42 45.7434L10.2582 45.2484L8.96437 48.2844Z" fill="#A0616A"/>
<path d="M15.469 49.0293L16.3246 49.0292L16.7317 45.7289L15.4688 45.729L15.469 49.0293Z" fill="#A0616A"/>
<path d="M15.4389 49.9218L18.07 49.9217V49.8884C18.07 49.6168 17.9621 49.3564 17.77 49.1643C17.578 48.9723 17.3175 48.8644 17.0459 48.8643L16.5652 48.4997L15.6685 48.8644L15.4388 48.8644L15.4389 49.9218Z" fill="#2F2E41"/>
<path d="M8.48578 48.8557L10.9063 49.8872L10.9193 49.8566C11.0258 49.6068 11.0286 49.3248 10.9273 49.0729C10.8259 48.8209 10.6286 48.6195 10.3787 48.513L10.0795 47.9891L9.1116 47.973L8.90031 47.883L8.48578 48.8557Z" fill="#2F2E41"/>
<path d="M16.3083 29.4972L17.6086 37.4152L17.2548 38.5951L17.7191 39.4308L17.0372 46.7697L17.314 47.3791L16.5406 47.8561H14.9668L14.8833 41.2121L14.4945 40.2366V39.699L13.7031 35.6477L13.6187 40.6789L13.366 41.1663L11.1026 47.0914H9.33786L9.47435 46.0399C9.15817 45.8798 9.94906 45.4119 10.0251 45.0658L9.7652 44.4811L10.0251 43.3768L10.6236 40.3054L10.012 36.6637L10.2311 34.3197L10.117 33.5178L10.1257 33.2585C10.1257 33.2585 10.4273 33.1421 10.1393 32.8516C9.74045 30.5908 10.2311 30.1002 10.2311 30.1002L12.1947 28.951L16.3083 29.4972Z" fill="#2F2E41"/>
<path d="M13.1416 19.0697C14.1265 19.0697 14.925 18.2713 14.925 17.2863C14.925 16.3014 14.1265 15.5029 13.1416 15.5029C12.1566 15.5029 11.3582 16.3014 11.3582 17.2863C11.3582 18.2713 12.1566 19.0697 13.1416 19.0697Z" fill="#A0616A"/>
<path d="M10.9057 13.8652C10.9141 13.9675 10.9 14.0703 10.8643 14.1666C10.8287 14.2628 10.7724 14.35 10.6994 14.4221C10.6264 14.4942 10.5385 14.5494 10.4418 14.5838C10.3452 14.6183 10.2421 14.6311 10.14 14.6214L9.10378 16.8899L8.41611 15.7914L9.50556 13.8056C9.5332 13.6351 9.62242 13.4807 9.75632 13.3715C9.89022 13.2624 10.0595 13.2062 10.2321 13.2136C10.4047 13.2209 10.5685 13.2913 10.6927 13.4114C10.8168 13.5315 10.8926 13.693 10.9057 13.8652Z" fill="#A0616A"/>
<path d="M16.4252 29.6677C16.4289 29.6944 16.4261 29.7217 16.417 29.7471C16.4079 29.7725 16.3928 29.7954 16.373 29.8137C16.3532 29.832 16.3293 29.8453 16.3032 29.8524C16.2772 29.8595 16.2498 29.8602 16.2234 29.8545C15.2897 29.6527 11.4365 30.1369 10.1602 31.4376C10.1361 31.4625 10.1048 31.4793 10.0708 31.4858C10.0367 31.4923 10.0015 31.4881 9.9699 31.4739C9.9383 31.4596 9.91187 31.4359 9.8942 31.4061C9.87653 31.3763 9.8685 31.3417 9.87118 31.3071C9.8937 31.0275 10.3 29.7625 10.3 29.7625L10.4239 28.9742C10.4267 28.9559 10.4267 28.9372 10.4239 28.9188L10.3104 28.2666C10.3042 28.2325 10.2879 28.2011 10.2634 28.1765L10.225 28.1381C10.1934 28.1064 10.1757 28.0636 10.1757 28.0189C10.1757 27.9742 10.1934 27.9313 10.225 27.8997L10.3742 27.7514C10.3923 27.7329 10.406 27.7106 10.4142 27.686C10.4225 27.6615 10.4252 27.6354 10.422 27.6097L10.224 26.1458C10.2231 26.143 10.2231 26.1392 10.2222 26.1364L9.34754 21.5174C9.34076 21.481 9.34618 21.4433 9.36298 21.4102C9.37977 21.3771 9.407 21.3505 9.44044 21.3344L10.9269 20.624C10.9424 20.6169 10.9566 20.6074 10.9691 20.5959L12.0071 19.6331C12.038 19.605 12.0779 19.589 12.1197 19.588L13.9853 19.5739C14.0112 19.5739 14.0367 19.5799 14.06 19.5912C14.0832 19.6026 14.1036 19.6192 14.1195 19.6396L14.6872 20.3782C14.7074 20.4043 14.7348 20.4238 14.766 20.4345L15.1508 20.5649L16.2619 20.9422L16.3135 20.96C16.3454 20.971 16.3733 20.9914 16.3934 21.0186C16.4135 21.0457 16.4249 21.0783 16.4261 21.112C16.4269 21.117 16.4272 21.122 16.4271 21.127L16.1493 26.8759C16.1485 26.9012 16.1529 26.9265 16.1624 26.95L16.2957 27.2606C16.309 27.2921 16.3124 27.3269 16.3055 27.3604C16.2987 27.3939 16.2818 27.4246 16.2572 27.4483C16.2178 27.4858 16.1727 27.529 16.1446 27.5609C16.0873 27.6238 16.2093 28.1221 16.2281 28.1944C16.2298 28.2005 16.2311 28.2068 16.2319 28.2131L16.3004 28.7283C16.3044 28.7586 16.3 28.7894 16.2877 28.8173C16.2755 28.8453 16.2559 28.8693 16.2309 28.8869C16.212 28.9005 16.196 28.9178 16.1841 28.9378C16.1722 28.9578 16.1646 28.9801 16.1618 29.0033C16.159 29.0264 16.161 29.0498 16.1677 29.0721C16.1744 29.0944 16.1858 29.1151 16.2009 29.1328L16.351 29.3102C16.3715 29.3352 16.3848 29.3654 16.3895 29.3974L16.4252 29.6677Z" fill="#C84949"/>
<path d="M12.6854 18.9824C12.6777 18.9656 12.6701 18.9488 12.6626 18.9319C12.6655 18.932 12.6684 18.9324 12.6713 18.9325L12.6854 18.9824Z" fill="#2F2E41"/>
<path d="M19.0352 29.081C19.0439 28.9788 19.0301 28.8759 18.9947 28.7796C18.9593 28.6833 18.9032 28.5959 18.8304 28.5237C18.7576 28.4514 18.6698 28.3959 18.5732 28.3613C18.4767 28.3266 18.3737 28.3135 18.2715 28.3229L17.2411 26.0517L16.5506 27.1485L17.635 29.137C17.6622 29.3076 17.751 29.4623 17.8846 29.5718C18.0183 29.6812 18.1874 29.7379 18.36 29.731C18.5326 29.7241 18.6966 29.6541 18.8211 29.5343C18.9456 29.4145 19.0217 29.2532 19.0352 29.081Z" fill="#A0616A"/>
<path d="M17.6386 26.6966L17.5813 26.8036L16.9779 27.9316L16.8935 28.0893L16.3041 27.2775L14.37 24.6142L14.645 22.9438L15.1508 20.8511L15.9006 20.808L16.4261 21.0229C16.65 21.1217 16.8336 21.2938 16.9468 21.5107C17.06 21.7276 17.0961 21.9766 17.0492 22.2168L16.5838 24.6002L17.6386 26.6966Z" fill="#C84949"/>
<path d="M14.6943 15.6816C14.6676 15.5335 14.6079 15.3932 14.5197 15.2712C14.4752 15.2184 14.4201 15.1755 14.358 15.1455C14.2959 15.1154 14.2281 15.0987 14.1591 15.0967C14.0901 15.0946 14.0214 15.107 13.9575 15.1333C13.8937 15.1595 13.8361 15.199 13.7885 15.249C13.8164 15.1679 13.8245 15.0814 13.8122 14.9966C13.6819 15.059 13.5426 15.1005 13.3994 15.1193L13.7159 14.7889L12.1405 14.9336C11.9779 14.9486 11.8021 14.9697 11.6827 15.0933C11.5634 15.2168 11.5567 15.4804 11.7076 15.5493C11.4103 15.4373 11.0688 15.5998 10.8726 15.8722C10.6765 16.1445 10.6042 16.5037 10.591 16.8522C10.5738 17.3041 10.658 17.7851 10.9338 18.1178C11.1142 18.3354 11.3601 18.471 11.5597 18.6667L11.5657 18.6726C11.7843 18.8969 12.0584 19.0592 12.36 19.1433C12.6617 19.2273 12.9803 19.23 13.2833 19.1511C13.3173 19.1418 13.3511 19.1314 13.3851 19.1217C13.5549 19.1985 13.7663 19.0935 13.8734 18.9228C13.9877 18.7407 14.0103 18.5078 14.0151 18.2859C14.0215 17.9958 14.0036 17.7056 13.9617 17.4184C13.9144 17.0949 13.8719 16.6808 14.128 16.5183C14.3274 16.3918 14.5752 16.5166 14.7759 16.6405C14.7952 16.3186 14.7677 15.9956 14.6943 15.6816Z" fill="#2F2E41"/>
<path d="M10.8914 23.9376L9.70307 23.8518L7.64068 21.3268L6.10976 19.1324L6.46234 18.2404L8.12888 15.8528L8.11162 15.6466L8.29604 15.6134L8.2993 15.3651L8.45237 15.3894L8.86236 14.802L9.80079 15.5528L9.27007 17.1118L9.23774 17.4296L9.05413 17.7462L9.14389 18.1804L8.79295 18.5134L8.62398 19.0098C9.35295 19.4892 10.0443 20.2064 10.7183 21.1041L10.8914 23.9376Z" fill="#C84949"/>
<path d="M27.0864 26.6837L26.9576 27.8783L27.0334 29.445L23.5634 29.0327L23.2373 26.6837L23.6528 26.6878L27.0864 26.6837Z" fill="#FFB6B6"/>
<path d="M24.0651 22.7574L24.8896 22.2626L25.2849 21.6526L26.5049 21.8402L27.9962 22.8399L27.9816 25.1073L27.0569 27.4589L23.1816 26.9642L23.0344 26.1347C23.0344 26.1347 21.9625 24.695 23.1168 23.8705L24.0651 22.7574Z" fill="#C84949"/>
<path d="M19.1163 16.0248C19.0772 16.1081 19.0569 16.199 19.0567 16.291C19.0565 16.383 19.0766 16.4739 19.1153 16.5574C19.1541 16.6408 19.2107 16.7147 19.2812 16.7739C19.3516 16.8331 19.4342 16.8762 19.5231 16.9L22.2076 21.9653L23.2912 21.129L20.3117 16.4129C20.3418 16.261 20.3152 16.1032 20.2368 15.9696C20.1584 15.836 20.0337 15.7357 19.8864 15.6879C19.739 15.6401 19.5792 15.6479 19.4373 15.71C19.2954 15.7721 19.1811 15.8841 19.1163 16.0248Z" fill="#FFB6B6"/>
<path d="M23.5199 23.6769C23.5199 23.6769 23.2712 23.8975 22.9174 23.2883C22.6342 22.8006 21.2217 20.6167 21.0217 19.8596C20.912 19.8627 20.8044 19.8292 20.7158 19.7644C20.6272 19.6996 20.5627 19.6072 20.5325 19.5017L22.0497 18.9128C22.3795 19.0777 22.288 19.3062 22.2043 19.4245L22.7694 20.2721L24.6489 22.3813L23.7026 23.5206L23.5199 23.6769Z" fill="#C84949"/>
<path d="M28.8862 48.3739H28.1276L27.7665 45.4477H28.8862V48.3739Z" fill="#FFB6B6"/>
<path d="M29.2866 49.6883H28.7426L28.6455 49.1746L28.3967 49.6883H26.9538C26.8846 49.6883 26.8173 49.6662 26.7615 49.6252C26.7058 49.5842 26.6647 49.5265 26.6441 49.4604C26.6235 49.3944 26.6246 49.3235 26.6471 49.2581C26.6697 49.1928 26.7125 49.1363 26.7695 49.097L27.9218 48.3012V47.7819L29.1338 47.8542L29.2866 49.6883Z" fill="#2F2E41"/>
<path d="M24.6248 48.3739H23.8662L23.5051 45.4477H24.6248V48.3739Z" fill="#FFB6B6"/>
<path d="M25.0252 49.6883H24.4812L24.384 49.1746L24.1353 49.6883H22.6924C22.6232 49.6883 22.5558 49.6662 22.5001 49.6252C22.4444 49.5842 22.4033 49.5265 22.3827 49.4604C22.3621 49.3944 22.3632 49.3235 22.3857 49.2581C22.4083 49.1928 22.4511 49.1363 22.5081 49.097L23.6604 48.3012V47.7819L24.8724 47.8542L25.0252 49.6883Z" fill="#2F2E41"/>
<path d="M29.2135 45.8504H29.2053L29.0594 41.0925C29.1538 40.9104 29.2017 40.7078 29.1989 40.5026C29.196 40.2975 29.1425 40.0963 29.0431 39.9169L29.0222 39.879L29.0763 39.628C29.1459 39.3054 29.114 38.9692 28.9849 38.6655L28.8488 34.2273C29.3351 31.0759 27.0177 29.0206 27.0177 29.0206H23.5461L23.298 29.873L23.0327 30.0984L23.1331 30.4395L22.845 30.8492L22.8008 31.5813C22.3081 36.3816 22.3975 41.0593 23.1794 45.5913L23.1581 45.6021C23.1176 45.6246 23.0874 45.6619 23.0737 45.7061C23.06 45.7503 23.0639 45.7981 23.0845 45.8396C23.1206 45.9442 23.2121 46.0076 23.2889 45.9811L25.1223 45.9173C25.1627 45.8948 25.1929 45.8575 25.2066 45.8133C25.2203 45.7691 25.2164 45.7213 25.1958 45.6799C25.1597 45.5752 25.0682 45.5118 24.9914 45.5383L24.8668 45.6014L25.1326 41.0102L25.1031 40.1716L25.1639 39.2202L25.4449 34.9409L26.5086 40.2032L27.5952 45.9034C27.5652 45.9305 27.5442 45.9661 27.5348 46.0054C27.5255 46.0448 27.5283 46.086 27.5429 46.1237C27.5575 46.1614 27.5832 46.1938 27.6166 46.2166C27.65 46.2394 27.6895 46.2515 27.73 46.2514H29.2135C29.2667 46.2514 29.3177 46.2303 29.3553 46.1927C29.3929 46.1551 29.414 46.1041 29.414 46.0509C29.414 45.9977 29.3929 45.9467 29.3553 45.9092C29.3177 45.8716 29.2667 45.8504 29.2135 45.8504Z" fill="#2F2E41"/>
<path d="M33.0155 30.9783C33.0521 30.8939 33.0698 30.8025 33.0672 30.7105C33.0647 30.6185 33.042 30.5282 33.0008 30.4459C32.9596 30.3636 32.9009 30.2914 32.8287 30.2343C32.7566 30.1772 32.6728 30.1366 32.5833 30.1153L29.752 25.1305L28.6933 25.9981L31.8092 30.6252C31.7835 30.778 31.8148 30.9349 31.897 31.0661C31.9793 31.1974 32.1068 31.294 32.2555 31.3375C32.4042 31.381 32.5637 31.3685 32.7037 31.3023C32.8438 31.2361 32.9547 31.1208 33.0155 30.9783Z" fill="#FFB6B6"/>
<path d="M27.7602 22.8364C27.7602 22.8364 28.0024 22.6086 28.3738 23.2072C28.6711 23.6865 30.7769 26.4498 30.9989 27.2007C31.1085 27.1944 31.217 27.2248 31.3075 27.2869C31.3979 27.3491 31.4651 27.4396 31.4984 27.5442L29.999 28.1771C29.6645 28.0219 29.5087 27.7316 29.5889 27.611L28.9993 26.7802L26.789 24.2284L27.5821 22.998L27.7602 22.8364Z" fill="#C84949"/>
<path d="M38.9656 49.8543C38.9657 49.8734 38.9619 49.8924 38.9546 49.9101C38.9473 49.9278 38.9366 49.9439 38.923 49.9575C38.9095 49.971 38.8934 49.9817 38.8757 49.989C38.858 49.9963 38.839 50.0001 38.8198 50H0.151771C0.113114 50 0.0760387 49.9847 0.0487036 49.9573C0.0213685 49.93 0.00601196 49.8929 0.00601196 49.8543C0.00601196 49.8156 0.0213685 49.7785 0.0487036 49.7512C0.0760387 49.7239 0.113114 49.7085 0.151771 49.7085H38.8198C38.839 49.7084 38.858 49.7122 38.8757 49.7195C38.8934 49.7268 38.9095 49.7375 38.923 49.7511C38.9366 49.7646 38.9473 49.7807 38.9546 49.7984C38.9619 49.8161 38.9657 49.8351 38.9656 49.8543Z" fill="#CCCCCC"/>
<path d="M24.692 18.3621C24.1872 19.357 24.517 20.5095 25.4537 21.1155C26.4666 21.7709 27.7817 21.6274 28.2071 20.3538C28.6808 18.9356 28.2917 18.3272 27.4455 17.6004C26.4538 16.7486 25.2374 17.287 24.692 18.3621Z" fill="#2F2E41"/>
<path d="M27.1769 20.5785C26.9199 20.9152 26.5397 21.136 26.12 21.1926C25.7003 21.2492 25.2752 21.1369 24.9382 20.8803C24.6013 20.6237 24.3799 20.2438 24.3228 19.8242C24.2657 19.4045 24.3775 18.9793 24.6337 18.642L24.6476 18.6238C24.9094 18.2961 25.2895 18.0845 25.7059 18.0345C26.1223 17.9846 26.5417 18.1003 26.8736 18.3568C27.2054 18.6133 27.4232 18.9899 27.4799 19.4055C27.5365 19.821 27.4276 20.2422 27.1765 20.5782L27.1769 20.5785Z" fill="#FFB6B6"/>
<path d="M24.2028 18.201C24.4625 18.4481 24.7791 18.6275 25.1246 18.7233C25.1939 18.6432 25.276 18.5751 25.3676 18.522C25.3237 18.6132 25.2937 18.7104 25.2784 18.8104C25.4325 19.1302 26.0619 19.3601 26.6634 19.5952L27.4601 18.1891L26.4056 17.5916C25.5582 17.0058 24.5607 17.2558 24.2028 18.201Z" fill="#2F2E41"/>
<path d="M28.0611 17.6021C28.138 17.5738 28.2208 17.5651 28.3019 17.577C28.383 17.5888 28.4598 17.6208 28.5254 17.6699C28.6538 17.7675 28.7576 17.8938 28.8285 18.0386C28.9575 18.273 29.0502 18.5255 29.1034 18.7877C29.1489 19.0145 29.1412 19.2887 28.9377 19.407C28.7679 19.5058 28.5251 19.4436 28.3691 19.3118C28.2244 19.1735 28.1147 19.0029 28.049 18.8139C27.9844 18.6263 27.8886 18.4509 27.7655 18.2953L27.9061 18.3609C27.8616 18.226 27.8409 18.0844 27.8449 17.9424C27.8481 17.8718 27.8697 17.8032 27.9077 17.7435C27.9456 17.6838 27.9985 17.6351 28.0611 17.6021Z" fill="#2F2E41"/>
<path d="M26.2371 17.7864L27.3685 18.4275C27.52 18.5133 27.6531 18.6281 27.7602 18.7654C27.8673 18.9027 27.9463 19.0597 27.9927 19.2275C28.0391 19.3953 28.052 19.5706 28.0307 19.7434C28.0094 19.9162 27.9542 20.0831 27.8684 20.2346C27.6159 20.6801 27.2063 21.0155 26.7197 21.1752C26.2331 21.3348 25.7045 21.3074 25.2371 21.0981L26.2709 20.1855L24.8685 20.9L24.569 20.7303C26.0731 20.4569 26.3633 19.277 26.2371 17.7864Z" fill="#2F2E41"/>
<path d="M15.3116 0L11.5896 6.19674L15.3243 8.40168L15.3116 0Z" fill="#8C8C8C"/>
<path d="M19.05 6.19674L15.3116 0L15.3243 8.40168L19.05 6.19674Z" fill="#333333"/>
<path d="M11.5896 6.19674L15.3198 4.49658L15.3243 8.40168L11.5896 6.19674Z" fill="#383838"/>
<path d="M19.05 6.19674L15.3198 4.49658L15.3279 8.25894L19.05 6.19674Z" fill="#141414"/>
<path d="M19.0409 6.90639L15.3152 9.11133V12.1527L19.0409 6.90639Z" fill="#333333"/>
<path d="M11.5894 6.90639L15.3152 9.11133V12.1527L11.5894 6.90639Z" fill="#8C8C8C"/>
</g>
<defs>
<clipPath id="clip0_449_2145">
<rect width="39.7779" height="50" fill="white"/>
</clipPath>
</defs>
</svg>
