<svg width="13" height="11" viewBox="0 0 13 11" fill="none" xmlns="http://www.w3.org/2000/svg">
<path d="M1.375 10.8018L12.2812 6.12676C12.394 6.07873 12.4901 5.99862 12.5577 5.89638C12.6253 5.79415 12.6613 5.67431 12.6613 5.55176C12.6613 5.42921 12.6253 5.30937 12.5577 5.20713C12.4901 5.1049 12.394 5.02479 12.2812 4.97676L1.375 0.301758C1.28056 0.260567 1.17736 0.243535 1.07469 0.252198C0.972029 0.26086 0.873136 0.294946 0.786936 0.351378C0.700737 0.407811 0.629943 0.484816 0.58094 0.575446C0.531938 0.666076 0.506269 0.767479 0.50625 0.870508L0.5 3.75176C0.5 4.06426 0.73125 4.33301 1.04375 4.37051L9.875 5.55176L1.04375 6.72676C0.73125 6.77051 0.5 7.03926 0.5 7.35176L0.50625 10.233C0.50625 10.6768 0.9625 10.983 1.375 10.8018Z" fill="white"/>
</svg>
