<svg width="6" height="6" viewBox="0 0 6 6" fill="none" xmlns="http://www.w3.org/2000/svg">
<path d="M2.14592 1.02238C2.52601 0.340792 2.71591 0 3 0C3.28409 0 3.47399 0.340792 3.85408 1.02238L3.95248 1.19877C4.06047 1.39257 4.11447 1.48946 4.19847 1.55336C4.28247 1.61726 4.38747 1.64096 4.59746 1.68836L4.78826 1.73156C5.52624 1.89866 5.89493 1.98205 5.98283 2.26435C6.07043 2.54634 5.81903 2.84063 5.31594 3.42892L5.18575 3.58102C5.04295 3.74811 4.97125 3.83181 4.93915 3.93501C4.90705 4.0385 4.91785 4.1501 4.93945 4.373L4.95925 4.57609C5.03515 5.36117 5.07325 5.75356 4.84346 5.92786C4.61366 6.10216 4.26807 5.94316 3.57749 5.62517L3.39839 5.54297C3.20219 5.45237 3.1041 5.40737 3 5.40737C2.8959 5.40737 2.7978 5.45237 2.60161 5.54297L2.42281 5.62517C1.73193 5.94316 1.38634 6.10216 1.15684 5.92816C0.926749 5.75356 0.964848 5.36117 1.04075 4.57609L1.06055 4.3733C1.08214 4.1501 1.09294 4.0385 1.06055 3.93531C1.02875 3.83181 0.957048 3.74811 0.814251 3.58132L0.684054 3.42892C0.180966 2.84093 -0.0704278 2.54664 0.0171701 2.26435C0.104768 1.98205 0.474059 1.89836 1.21204 1.73156L1.40284 1.68836C1.61253 1.64096 1.71723 1.61726 1.80153 1.55336C1.88583 1.48946 1.93952 1.39257 2.04752 1.19877L2.14592 1.02238Z" fill="#AFAFAF"/>
</svg>
