<svg width="25" height="24" viewBox="0 0 25 24" fill="none" xmlns="http://www.w3.org/2000/svg">
<path fill-rule="evenodd" clip-rule="evenodd" d="M12.4753 24C5.75491 24 0.307556 18.6278 0.307556 12C0.307556 5.37225 5.75491 0 12.4753 0C19.1957 0 24.6431 5.37225 24.6431 12C24.6431 18.6278 19.1957 24 12.4753 24ZM13.937 10.3448V8.57025H18.0542V5.86425H6.84392V8.57025H10.9612V10.344C7.61505 10.4955 5.09861 11.1495 5.09861 11.9325C5.09861 12.7155 7.61505 13.3687 10.9612 13.521V19.2075H13.937V13.5195C17.2778 13.368 19.7881 12.7148 19.7881 11.9325C19.7881 11.1502 17.2778 10.497 13.937 10.3448ZM13.937 13.0372V13.0358C13.8533 13.0417 13.4221 13.0673 12.4601 13.0673C11.692 13.0673 11.1513 13.0448 10.9612 13.0358V13.038C8.00442 12.9098 5.79749 12.402 5.79749 11.7945C5.79749 11.1877 8.00442 10.68 10.9612 10.5495V12.5325C11.1543 12.546 11.708 12.5782 12.473 12.5782C13.3909 12.5782 13.851 12.5408 13.937 12.5333V10.551C16.8876 10.6807 19.0892 11.1885 19.0892 11.7945C19.0892 12.402 16.8876 12.9082 13.937 13.0372Z" fill="black"/>
</svg>
