<svg width="20" height="20" viewBox="0 0 20 20" fill="none" xmlns="http://www.w3.org/2000/svg">
<path d="M0 9.28571H3.57143V19.2857H0V9.28571ZM15 19.2857H5V8.71214L7.17286 5.45286L7.77643 1.22643C7.82649 0.886631 7.99671 0.57604 8.2562 0.351019C8.51569 0.125998 8.84725 0.00145803 9.19071 0H9.28571C9.85386 0.000567296 10.3986 0.226514 10.8003 0.628255C11.2021 1.03 11.428 1.57471 11.4286 2.14286V6.42857H17.1429C17.9003 6.42952 18.6265 6.73084 19.1621 7.26645C19.6977 7.80207 19.9991 8.52824 20 9.28571V14.2857C19.9985 15.6113 19.4712 16.8822 18.5339 17.8196C17.5965 18.7569 16.3256 19.2842 15 19.2857Z" fill="#34A887"/>
</svg>
