<svg width="35" height="35" viewBox="0 0 35 35" fill="none" xmlns="http://www.w3.org/2000/svg">
<path d="M17.5 0C27.1655 0 35 7.83453 35 17.5C35 27.1655 27.1655 35 17.5 35C7.83453 35 0 27.1655 0 17.5C0 7.83453 7.83453 0 17.5 0ZM21.1663 6.08125C20.8994 5.95 20.6325 6.08125 20.5669 6.34703C20.5002 6.41375 20.5002 6.48047 20.5002 6.61281V7.5425L20.5111 7.65625C20.5682 7.88127 20.7065 8.07722 20.8994 8.20641C26.0991 10.0658 28.7656 15.8408 26.8319 20.9519C25.8322 23.7409 23.6327 25.8639 20.8994 26.8603C20.6325 26.9927 20.5002 27.1917 20.5002 27.5242V28.4539L20.5056 28.5502C20.516 28.6552 20.5599 28.7541 20.6308 28.8323C20.7017 28.9105 20.7959 28.9638 20.8994 28.9844C20.9661 28.9844 21.0995 28.9844 21.1663 28.9188C22.6664 28.4503 24.0591 27.6897 25.2641 26.6807C26.4691 25.6718 27.4626 24.4345 28.1874 23.04C28.9123 21.6456 29.3541 20.1215 29.4875 18.5556C29.6209 16.9896 29.4432 15.4128 28.9647 13.9158C27.7659 10.1314 24.8325 7.27672 21.1663 6.08234V6.08125ZM14.1006 6.01562C14.0339 6.01562 13.9005 6.01562 13.8337 6.08125C12.3336 6.54973 10.9409 7.31033 9.73593 8.31925C8.53094 9.32818 7.53742 10.5655 6.81258 11.96C6.08774 13.3544 5.64591 14.8785 5.51251 16.4444C5.37911 18.0104 5.55679 19.5872 6.03531 21.0842C7.23406 24.803 10.1008 27.6577 13.8337 28.852C14.1006 28.9844 14.3675 28.852 14.4331 28.5862C14.4998 28.5206 14.4998 28.4528 14.4998 28.3205V27.3908L14.4889 27.3033C14.443 27.1184 14.2712 26.9073 14.1006 26.7936C8.90094 24.9342 6.23438 19.1592 8.16813 14.0481C9.16781 11.2591 11.3673 9.13609 14.1006 8.13969C14.3675 8.00734 14.4998 7.80828 14.4998 7.47578V6.54609L14.4944 6.44984C14.484 6.34482 14.4401 6.24591 14.3692 6.16773C14.2983 6.08954 14.2041 6.03622 14.1006 6.01562ZM17.967 9.4675H16.9662L16.87 9.47625C16.6513 9.52 16.4916 9.70813 16.4325 9.99906V11.5259L16.2061 11.5609C14.338 11.8934 13.1677 13.183 13.1677 14.7787C13.1677 16.9684 14.4998 17.8314 17.2998 18.1639C19.1669 18.4953 19.7663 18.8945 19.7663 19.9566C19.7663 21.0175 18.8333 21.7481 17.5667 21.7481C15.8331 21.7481 15.2338 21.0186 15.0336 20.0222C14.968 19.7575 14.7667 19.6241 14.5666 19.6241H13.4334L13.347 19.6317C13.2392 19.6491 13.1413 19.7051 13.0715 19.7891C13.0017 19.8732 12.9648 19.9797 12.9675 20.0889V20.1545L13.0036 20.3514C13.3208 21.9089 14.3883 23.0234 16.5003 23.3417V24.9353L16.5091 25.0316C16.5528 25.2481 16.742 25.4078 17.0341 25.4658H18.0338L18.13 25.457C18.3487 25.4133 18.5084 25.2252 18.5675 24.9353V23.3406L18.7939 23.2969C20.6675 22.9009 21.9002 21.5458 21.9002 19.822C21.9002 17.4989 20.5002 16.7027 17.7002 16.3702C15.6997 16.1044 15.3005 15.5739 15.3005 14.6442C15.3005 13.7145 15.9677 13.1173 17.2998 13.1173C18.4997 13.1173 19.1669 13.5155 19.4994 14.5119C19.534 14.6082 19.5974 14.6916 19.6809 14.7509C19.7644 14.8102 19.864 14.8424 19.9664 14.8433H21.0328L21.1192 14.8367C21.2275 14.8195 21.3258 14.7635 21.3958 14.6792C21.4658 14.5949 21.5028 14.488 21.4998 14.3784V14.3128L21.4594 14.1236C21.2952 13.4437 20.9207 12.833 20.3894 12.3782C19.858 11.9234 19.1968 11.6478 18.4997 11.5905V9.99906L18.4909 9.90281C18.4472 9.68516 18.258 9.52547 17.9659 9.4675H17.967Z" fill="black" fill-opacity="0.5"/>
</svg>
