<svg width="24" height="24" viewBox="0 0 24 24" fill="none" xmlns="http://www.w3.org/2000/svg">
<path fill-rule="evenodd" clip-rule="evenodd" d="M11.9999 23.4283C13.5017 23.4321 14.9895 23.139 16.3778 22.566C17.766 21.993 19.0273 21.1514 20.0893 20.0894C21.1513 19.0274 21.9929 17.7661 22.5659 16.3779C23.1389 14.9896 23.432 13.5018 23.4282 12C23.432 10.4982 23.1389 9.01039 22.5659 7.62215C21.9929 6.23391 21.1513 4.97258 20.0893 3.91061C19.0273 2.84865 17.766 2.00699 16.3778 1.43399C14.9895 0.860982 13.5017 0.56793 11.9999 0.571668C10.4981 0.56793 9.01029 0.860982 7.62205 1.43399C6.23381 2.00699 4.97248 2.84865 3.91052 3.91061C2.84855 4.97258 2.00689 6.23391 1.43389 7.62215C0.860883 9.01039 0.567831 10.4982 0.571569 12C0.567831 13.5018 0.860883 14.9896 1.43389 16.3779C2.00689 17.7661 2.84855 19.0274 3.91052 20.0894C4.97248 21.1514 6.23381 21.993 7.62205 22.566C9.01029 23.139 10.4981 23.4321 11.9999 23.4283ZM15.1432 13.8067C15.1432 12.1433 14.1432 11.5717 12.1432 11.335C10.7149 11.1433 10.4282 10.7633 10.4282 10.0933C10.4282 9.42833 10.9066 9 11.8566 9C12.7149 9 13.1932 9.285 13.4282 10C13.4782 10.1433 13.6216 10.235 13.7649 10.235H14.5216C14.5654 10.2364 14.609 10.2288 14.6498 10.2129C14.6906 10.197 14.7278 10.1729 14.7591 10.1423C14.7904 10.1116 14.8151 10.0749 14.8319 10.0344C14.8486 9.99394 14.857 9.95048 14.8566 9.90667V9.85667C14.6649 8.80667 13.8066 7.80667 12.7149 7.71333V6.66333C12.7149 6.47167 12.5716 6.32833 12.3349 6.285H11.7066C11.5149 6.285 11.3349 6.42833 11.2866 6.66333V7.71333C9.85657 7.90667 8.90657 9 8.90657 10.1933C8.90657 11.7633 9.85657 12.3783 11.8566 12.6217C13.1932 12.8567 13.6216 13.1433 13.6216 13.9067C13.6216 14.6633 12.9499 15.1933 12.0499 15.1933C10.8066 15.1933 10.3782 14.6633 10.2366 13.95C10.1932 13.7633 10.0499 13.6633 9.90657 13.6633H9.09323C9.04927 13.6629 9.00568 13.6713 8.96507 13.6882C8.92447 13.705 8.88771 13.7299 8.85702 13.7614C8.82633 13.7929 8.80234 13.8302 8.7865 13.8713C8.77067 13.9123 8.76332 13.9561 8.7649 14V14.05C8.9499 15.235 9.7149 16.05 11.2866 16.285V17.3433C11.2866 17.535 11.4282 17.6633 11.6649 17.7133H12.3499C12.5349 17.7133 12.6649 17.585 12.7149 17.3433V16.285C14.1432 16.05 15.1432 15.0933 15.1432 13.8067ZM7.1899 17.3667C7.88157 18 8.6899 18.49 9.57157 18.8083C9.7149 18.9083 9.85657 19.095 9.85657 19.2367V19.9083C9.85657 20.0017 9.85657 20.0517 9.80657 20.0933C9.7649 20.2867 9.57157 20.38 9.37823 20.2867C7.64526 19.7348 6.13275 18.646 5.05942 17.1777C3.9861 15.7095 3.40761 13.9379 3.40761 12.1192C3.40761 10.3004 3.9861 8.52885 5.05942 7.0606C6.13275 5.59235 7.64526 4.50355 9.37823 3.95167C9.42823 3.90833 9.52157 3.90833 9.57157 3.90833C9.7649 3.95167 9.85657 4.09333 9.85657 4.28667V4.95167C9.85657 5.19333 9.7649 5.33667 9.57157 5.43C8.5976 5.78113 7.71293 6.34247 6.98041 7.07412C6.24789 7.80577 5.68551 8.68978 5.33323 9.66333C4.84216 10.9861 4.75635 12.4252 5.08675 13.7969C5.41714 15.1687 6.14876 16.4109 7.18823 17.365M14.1916 4.14167C14.2332 3.95 14.4266 3.85667 14.6199 3.95C15.9289 4.37607 17.1174 5.10842 18.0864 6.08618C19.0555 7.06395 19.7772 8.25888 20.1916 9.57167C20.5336 10.644 20.6608 11.7732 20.5659 12.8948C20.471 14.0163 20.1559 15.1081 19.6385 16.1077C19.1211 17.1073 18.4117 17.995 17.5509 18.7201C16.69 19.4452 15.6946 19.9934 14.6216 20.3333C14.5716 20.3767 14.4782 20.3767 14.4282 20.3767C14.2349 20.3333 14.1432 20.1917 14.1432 19.9983V19.3333C14.1432 19.0917 14.2349 18.9483 14.4282 18.855C15.4022 18.5039 16.2869 17.9425 17.0194 17.2109C17.7519 16.4792 18.3143 15.5952 18.6666 14.6217C18.9932 13.7435 19.1426 12.8093 19.1061 11.873C19.0696 10.9368 18.848 10.017 18.4541 9.16689C18.0602 8.31675 17.5018 7.55309 16.8111 6.91999C16.1203 6.28689 15.311 5.79691 14.4299 5.47833C14.2866 5.37833 14.1449 5.19167 14.1449 5V4.33333C14.1449 4.23333 14.1449 4.19 14.1949 4.14" fill="#5C5C5C"/>
</svg>
